<svg xmlns="http://www.w3.org/2000/svg" width="75" height="75" viewBox="0 0 75 75"><defs><clipPath id="a"><path d="M72.4 358.78a2.21 2.21 0 00-1.72-.78H59.11a2 2 0 00-2.11 1.86v9.28a2 2 0 002.11 1.86h11.57a2.21 2.21 0 001.72-.78l4.6-5.72z" fill="none"/></clipPath><clipPath id="b"><path fill="none" d="M62 362h1v5h-1z"/></clipPath><clipPath id="c"><path fill="none" d="M60 364h5v1h-5z"/></clipPath><clipPath id="d"><rect x="10" y="357" width="12" height="15" rx="2" ry="2" fill="none"/></clipPath><clipPath id="e"><rect x="13" y="360" width="12" height="15" rx="2" ry="2" fill="none"/></clipPath><clipPath id="f"><rect x="14" y="361" width="12" height="15" rx="2" ry="2" fill="none"/></clipPath></defs><rect y="15" width="75" height="45" rx="3" ry="3" fill="#33afff"/><path fill="#fff" opacity=".25" d="M18 23H8v10h3v-7h7v-3zm49 10V23H57v3h7v7h3zM57 52h10V42h-3v7h-7v3zM8 42v10h10v-3h-7v-7H8z"/><path d="M36 28a6.38 6.38 0 00-6.09 4.39 7.75 7.75 0 00-1-.07 6.84 6.84 0 100 13.67h18.92A5.1 5.1 0 0053 41.06a5 5 0 00-5-4.93h-.11A4.52 4.52 0 0043.33 32a4.21 4.21 0 00-1.36.22A6.33 6.33 0 0036 28z" fill="#fff"/></svg>