<svg xmlns="http://www.w3.org/2000/svg" width="75" height="75" viewBox="0 0 75 75"><defs><clipPath id="a"><path d="M272.4 358.78a2.21 2.21 0 00-1.72-.78h-11.57a2 2 0 00-2.11 1.85v9.28a2 2 0 002.11 1.85h11.57a2.21 2.21 0 001.72-.78l4.6-5.72z" fill="none"/></clipPath><clipPath id="b"><path fill="none" d="M262 362h1v5h-1z"/></clipPath><clipPath id="c"><path fill="none" d="M260 364h5v1h-5z"/></clipPath><clipPath id="d"><rect x="210" y="357" width="12" height="15" rx="2" ry="2" fill="none"/></clipPath><clipPath id="e"><rect x="213" y="360" width="12" height="15" rx="2" ry="2" fill="none"/></clipPath><clipPath id="f"><rect x="214" y="361" width="12" height="15" rx="2" ry="2" fill="none"/></clipPath></defs><rect y="15" width="75" height="45" rx="3" ry="3" fill="#ff6161"/><circle cx="37.5" cy="37.72" r="15" fill="#fff" opacity=".25"/><path fill="#fff" d="M45 37.72l-13-6.66v13.33l13-6.67z"/></svg>