<svg xmlns="http://www.w3.org/2000/svg" width="75" height="75" viewBox="0 0 75 75"><defs><clipPath id="a"><path d="M372.4 358.78a2.21 2.21 0 00-1.72-.78h-11.57a2 2 0 00-2.11 1.85v9.28a2 2 0 002.11 1.85h11.57a2.21 2.21 0 001.72-.78l4.6-5.72z" fill="none"/></clipPath><clipPath id="b"><path fill="none" d="M362 362h1v5h-1z"/></clipPath><clipPath id="c"><path fill="none" d="M360 364h5v1h-5z"/></clipPath><clipPath id="d"><rect x="310" y="357" width="12" height="15" rx="2" ry="2" fill="none"/></clipPath><clipPath id="e"><rect x="313" y="360" width="12" height="15" rx="2" ry="2" fill="none"/></clipPath><clipPath id="f"><rect x="314" y="361" width="12" height="15" rx="2" ry="2" fill="none"/></clipPath></defs><rect y="15" width="75" height="45" rx="3" ry="3" fill="#ffce53"/><path fill="#fff" opacity=".5" d="M30.66 40.02L16.31 55H45L30.66 40.02z"/><path fill="#fff" d="M48.5 36L30.31 55h36.38L48.5 36z"/><circle cx="16" cy="29" r="4" fill="#fff"/></svg>