<svg xmlns="http://www.w3.org/2000/svg" width="75" height="75" viewBox="0 0 75 75"><defs><clipPath id="a"><path d="M472.4 358.78a2.21 2.21 0 00-1.72-.78h-11.57a2 2 0 00-2.11 1.85v9.28a2 2 0 002.11 1.85h11.57a2.21 2.21 0 001.72-.78l4.6-5.72z" fill="none"/></clipPath><clipPath id="b"><path fill="none" d="M462 362h1v5h-1z"/></clipPath><clipPath id="c"><path fill="none" d="M460 364h5v1h-5z"/></clipPath><clipPath id="d"><rect x="410" y="357" width="12" height="15" rx="2" ry="2" fill="none"/></clipPath><clipPath id="e"><rect x="413" y="360" width="12" height="15" rx="2" ry="2" fill="none"/></clipPath><clipPath id="f"><rect x="414" y="361" width="12" height="15" rx="2" ry="2" fill="none"/></clipPath></defs><rect y="15" width="75" height="45" rx="3" ry="3" fill="#81a2b2"/><path fill="#fff" d="M10 29h16v3H10z"/><path fill="#fff" opacity=".25" d="M30 29h35v3H30zm0 14h25v3H30zm0-7h35v3H30z"/><path fill="#fff" d="M14 43h9v3h-9zm6-11v11h-3V32zm-7-3v6h-3v-6zm14 0v6h-3v-6z"/></svg>